<?xml version="1.0" encoding="UTF-8"?>
<!DOCTYPE svg PUBLIC "-//W3C//DTD SVG 1.1//EN" "http://www.w3.org/Graphics/SVG/1.1/DTD/svg11.dtd">
<!-- Creator: CorelDRAW -->
<svg xmlns="http://www.w3.org/2000/svg" xml:space="preserve" width="100mm" height="100mm" version="1.1" style="shape-rendering:geometricPrecision; text-rendering:geometricPrecision; image-rendering:optimizeQuality; fill-rule:evenodd; clip-rule:evenodd"
viewBox="0 0 10000 10000"
 xmlns:xlink="http://www.w3.org/1999/xlink"
 xmlns:xodm="http://www.corel.com/coreldraw/odm/2003">
 <defs>
  <style type="text/css">
   <![CDATA[
    .fil0 {fill:#2B2A29}
    .fil1 {fill:#0192BA}
   ]]>
  </style>
 </defs>
 <g id="Katman_x0020_1">
  <metadata id="CorelCorpID_0Corel-Layer"/>
  <path class="fil0" d="M6589.76 6125.32c-4.13,2.84 -13.23,-3.74 -14.92,1.48l-50.59 5.57c-61.78,18.45 -106.47,24.23 -58.07,239.73 36.35,161.92 99.24,201.54 265.87,227.21 244.44,679.39 249.94,421.21 686.03,350.95l237.43 252.53c119.09,64.91 142.43,2.95 143.47,2.45 34.88,-133.3 -120.49,-363 -212.29,-457.42 -162.53,-167.13 -329.59,46.17 -407.65,-293.02 193.52,-122.04 286.54,-219.12 166.48,-439.15 -62.49,-114.49 -119.85,-105.79 -172.78,-133.87 23.52,-233.01 855.15,-2701.53 997.07,-3115.76 57.03,-166.34 35.75,-94 135.2,-197.95 65.66,-68.61 101.8,-129.59 132.47,-233.58 180.55,-612.18 -375.83,-1637.51 -1635.64,-1804.1 -1307.71,-172.89 -3122.74,509.98 -3836.43,1691.69 -478.16,791.72 -496.11,2011.22 -132.9,2127.19 237.97,76.01 131.43,-90.37 543.57,126.14 151.02,79.32 303.13,158.75 461.45,237.46l2564.71 1241.65c107.34,70.7 105.65,107.91 187.52,170.8zm-2253.57 -3714.17c60.77,127.47 203.3,333.72 284.5,453.96 575.43,852.45 1203.28,1875.99 1780.58,2754.86 97.88,149.01 234.45,333.44 307.08,455.19 106.33,-36.89 76.16,-59.73 168.86,-70.19 135.63,-15.32 64.83,23.52 152.49,41.21 19.42,-520.09 -539.04,-2415.13 -727.13,-3161.79 -13.23,-52.61 -232.5,-996.96 -285.61,-1034.65 -265.87,-66.73 -618.15,-84.07 -899.38,-64.97 83.28,-150.63 463.14,-391.51 601.11,-464.79 233.58,-124.09 443.43,-227.5 739.14,-295.72 563.68,-129.98 1313.82,41.36 1588.18,401.04 -225.78,-298.45 -438.07,-478.42 -866.94,-568.78 -760.57,-160.23 -1707.73,257.75 -2162.71,737.06 -212.51,223.87 -565.14,521.13 -680.17,817.57zm-400.57 635.59c58.97,106.93 180.15,220.02 256.38,306.79l1322.7 1417.7c63.68,73.35 63.72,60.23 141.82,131.24 69.4,63.04 174.5,223.3 393.91,428.8l-884.2 -1401.09c-151.41,-236.39 -300.35,-450.48 -457.63,-698.23 -139.8,-220.24 -301.9,-511.53 -457.38,-697.54l-315.6 512.33zm3042.31 1974l-183.93 -2939.11c-136.35,-80.94 -421.6,-166.41 -611.96,-199.67l795.89 3138.78zm-3353.63 -1256.47c120.38,44.8 190,100.07 301.18,189.75 102.3,82.56 191.19,139.44 281.26,206 199.31,147.25 368.03,268.24 560.4,413.23l844 617.64c98.63,75.51 190.86,152.28 315.06,214.38 -60.19,-123.98 -128.94,-172.78 -249.58,-279 -107.7,-94.82 -157.17,-203.95 -252.35,-296.97l-523.87 -539.94c-222.79,-209.6 -787.26,-903.69 -1039.68,-1091.21 -64.51,194.71 -187.48,349.94 -236.42,566.12zm3506.98 1339.6l335.35 -2632.67c-108.24,-87.74 -377.27,-276.95 -545.19,-330.42 23.44,497.23 65.94,997.58 92.48,1494.08 23.44,438.57 43.08,1049.75 117.36,1469.01zm-3870.51 -831.3c116.68,98.85 1074.77,552.2 1281.53,646.19 444.61,202.05 884.2,449.47 1328.56,631.17 -90.4,-100.83 -421.71,-319.88 -558.96,-424.02l-1738.23 -1269.44c-47.86,58.28 -79.36,137.86 -130.67,211.18 -76.37,109.13 -95.79,119.95 -182.23,204.92zm3991.3 893.55l799.55 -2434.95c-222.11,18.95 -348.5,-61.84 -462.99,-150.08 -86.23,303.66 -348.18,2282.51 -336.56,2585.03z"/>
  <path class="fil1" d="M1333.62 8358c351.99,555.58 1231.26,72.21 2151.45,361.48 691.07,217.22 1106.38,602.33 1933.84,739.08 1190.27,196.72 2199.35,-260.19 2826.31,-1135.94 121.32,-169.47 409.41,-667.34 413.55,-906.71l-439.37 393.92c-501.97,401.03 -1285.31,730.48 -1983.46,591.32 -1035.15,-206.32 -1073.95,-1134.07 -584.85,-1422.63 271.95,-160.44 438.9,-93.52 730.41,-33.44 -163.72,-439.43 -635.3,-745.61 -1248.2,-714.62 -1041.66,52.68 -1658.41,936.27 -2372.63,1570.27 -395.43,351.02 -721.31,544.83 -1427.05,557.27z"/>
 </g>
</svg>
